HIERARCHY
ROOT Hips
{
	OFFSET 0.000000 0.000000 0.000000
	CHANNELS 6 Xposition Yposition Zposition Zrotation Yrotation Xrotation 
	JOINT LHipJoint
	{
		OFFSET 0.000000 0.000000 0.000000
		CHANNELS 3 Zrotation Yrotation Xrotation
		JOINT LeftUpLeg
		{
			OFFSET 1.363060 -1.794630 0.839290
			CHANNELS 3 Zrotation Yrotation Xrotation
			JOINT LeftLeg
			{
				OFFSET 2.448110 -6.726130 0.000000
				CHANNELS 3 Zrotation Yrotation Xrotation
				JOINT LeftFoot
				{
					OFFSET 2.562200 -7.039590 0.000000
					CHANNELS 3 Zrotation Yrotation Xrotation
					JOINT LeftToeBase
					{
						OFFSET 0.157640 -0.433110 2.322550
						CHANNELS 3 Zrotation Yrotation Xrotation
						End Site
						{
							OFFSET 0.000000 0.000000 0.000000
						}
					}
				}
			}
		}
	}
	JOINT RHipJoint
	{
		OFFSET 0.000000 0.000000 0.000000
		CHANNELS 3 Zrotation Yrotation Xrotation
		JOINT RightUpLeg
		{
			OFFSET -1.305520 -1.794630 0.839290
			CHANNELS 3 Zrotation Yrotation Xrotation
			JOINT RightLeg
			{
				OFFSET -2.542530 -6.985550 0.000000
				CHANNELS 3 Zrotation Yrotation Xrotation
				JOINT RightFoot
				{
					OFFSET -2.568260 -7.056230 0.000000
					CHANNELS 3 Zrotation Yrotation Xrotation
					JOINT RightToeBase
					{
						OFFSET -0.164730 -0.452590 2.363150
						CHANNELS 3 Zrotation Yrotation Xrotation
						End Site
						{
							OFFSET 0.000000 0.000000 0.000000
						}
					}
				}
			}
		}
	}
	JOINT LowerBack
	{
		OFFSET 0.000000 0.000000 0.000000
		CHANNELS 3 Zrotation Yrotation Xrotation
		JOINT Spine
		{
			OFFSET 0.028270 2.035590 -0.193380
			CHANNELS 3 Zrotation Yrotation Xrotation
			JOINT Spine1
			{
				OFFSET 0.056720 2.048850 -0.042750
				CHANNELS 3 Zrotation Yrotation Xrotation
				JOINT Neck
				{
					OFFSET 0.000000 0.000000 0.000000
					CHANNELS 3 Zrotation Yrotation Xrotation
					JOINT Neck1
					{
						OFFSET -0.054170 1.746240 0.172020
						CHANNELS 3 Zrotation Yrotation Xrotation
						JOINT Head
						{
							OFFSET 0.104070 1.761360 -0.123970
							CHANNELS 3 Zrotation Yrotation Xrotation
							End Site
							{
								OFFSET 0.000000 0.000000 0.000000
							}
						}
					}
				}
				JOINT LeftShoulder
				{
					OFFSET 0.000000 0.000000 0.000000
					CHANNELS 3 Zrotation Yrotation Xrotation
					JOINT LeftArm
					{
						OFFSET 3.362410 1.200890 -0.311210
						CHANNELS 3 Zrotation Yrotation Xrotation
						JOINT LeftForeArm
						{
							OFFSET 4.983000 -0.000000 -0.000000
							CHANNELS 3 Zrotation Yrotation Xrotation
							JOINT LeftHand
							{
								OFFSET 3.483560 -0.000000 -0.000000
								CHANNELS 3 Zrotation Yrotation Xrotation
								JOINT LeftFingerBase
								{
									OFFSET 0.000000 0.000000 0.000000
									CHANNELS 3 Zrotation Yrotation Xrotation
									JOINT LeftHandIndex1
									{
										OFFSET 0.715260 -0.000000 -0.000000
										CHANNELS 3 Zrotation Yrotation Xrotation
										End Site
										{
											OFFSET 0.000000 0.000000 0.000000
										}
									}
								}
								JOINT LThumb
								{
									OFFSET 0.000000 0.000000 0.000000
									CHANNELS 3 Zrotation Yrotation Xrotation
									End Site
									{
										OFFSET 0.000000 0.000000 0.000000
									}
								}
							}
						}
					}
				}
				JOINT RightShoulder
				{
					OFFSET 0.000000 0.000000 0.000000
					CHANNELS 3 Zrotation Yrotation Xrotation
					JOINT RightArm
					{
						OFFSET -3.136600 1.374050 -0.404650
						CHANNELS 3 Zrotation Yrotation Xrotation
						JOINT RightForeArm
						{
							OFFSET -5.241900 -0.000000 -0.000000
							CHANNELS 3 Zrotation Yrotation Xrotation
							JOINT RightHand
							{
								OFFSET -3.444170 -0.000000 -0.000000
								CHANNELS 3 Zrotation Yrotation Xrotation
								JOINT RightFingerBase
								{
									OFFSET 0.000000 0.000000 0.000000
									CHANNELS 3 Zrotation Yrotation Xrotation
									JOINT RightHandIndex1
									{
										OFFSET -0.622530 -0.000000 -0.000000
										CHANNELS 3 Zrotation Yrotation Xrotation
										End Site
										{
											OFFSET 0.000000 0.000000 0.000000
										}
									}
								}
								JOINT RThumb
								{
									OFFSET 0.000000 0.000000 0.000000
									CHANNELS 3 Zrotation Yrotation Xrotation
									End Site
									{
										OFFSET 0.000000 0.000000 0.000000
									}
								}
							}
						}
					}
				}
			}
		}
	}
}
MOTION
Frames: 9
Frame Time: 0.008333
-35.382106 18.002991 -2.748000 -39.422901 79.794804 -35.055755 -2.361741 -0.946652 -0.747446 -2.929356 -5.048924 -20.753805 -0.792930 10.077043 28.284770 7.243372 -12.654889 14.128188 0.428300 4.200000 11.640000 4.535258 -3.126007 4.286178 18.135664 11.348761 1.728317 3.491646 -3.566928 11.534040 0.989299 -5.902023 -6.459590 -0.106300 -2.102600 5.789400 3.870926 -0.284998 12.011015 3.442166 0.341937 5.851623 -0.379642 0.982446 0.520739 -3.589680 4.696386 -4.574936 3.169155 5.271471 -5.544919 -0.637500 2.266300 -1.795500 -1.048404 -6.338885 0.750446 -78.702838 9.679293 34.271725 29.584809 -39.188167 -13.448936 0.636025 -1.788436 -3.395482 0.224116 10.772425 -0.065600 -7.125000 0.000000 0.000000 -24.227500 41.245100 2.403500 2.098204 6.088584 2.241013 70.439990 -8.267136 42.334299 -28.202239 35.563228 -9.594424 0.817545 0.389349 0.771673 -6.721433 -16.899723 2.248400 7.125000 0.000000 0.000000 19.199100 -46.453800 -0.714700 
-35.383962 18.002888 -2.746866 -39.398222 79.800499 -35.039732 -2.364884 -0.944740 -0.745705 -2.928844 -5.065005 -20.743155 -0.793218 10.074813 28.275602 7.232446 -12.615874 14.112198 0.393500 4.027700 11.154500 4.536216 -3.125403 4.282649 18.136630 11.383864 1.733272 3.489126 -3.578149 11.561647 1.002842 -5.938324 -6.457810 -0.102500 -2.064600 5.684200 3.866087 -0.281853 12.000613 3.445772 0.344621 5.852228 -0.369990 0.983478 0.525340 -3.538710 4.710199 -4.572243 3.141166 5.289966 -5.531494 -0.654000 2.275300 -1.790700 -1.046965 -6.336854 0.752185 -78.697272 9.708773 34.318495 29.624414 -39.221709 -13.478859 0.637795 -1.790384 -3.401405 0.173903 10.812515 -0.077100 -7.125000 0.000000 0.000000 -24.285500 41.278400 2.388600 2.096985 6.090683 2.238703 70.501341 -8.274659 42.214552 -28.097249 35.470418 -9.528147 0.810737 0.376131 0.846466 -6.811989 -16.678819 2.243900 7.125000 0.000000 0.000000 19.034900 -46.243600 -0.605900 
-35.386334 18.002475 -2.745834 -39.414743 79.797787 -35.054118 -2.351290 -0.943078 -0.759812 -2.934062 -5.051937 -20.758688 -0.786235 10.087439 28.299563 7.227929 -12.599921 14.080185 0.358400 3.845800 10.643100 4.540204 -3.161312 4.318994 18.129233 11.406502 1.921042 3.531620 -3.417185 11.139780 1.070291 -6.095763 -6.185493 -0.101600 -2.055800 5.659800 3.870319 -0.284674 11.987612 3.450003 0.341900 5.845967 -0.362812 0.981124 0.530456 -3.495614 4.702252 -4.515653 3.067621 5.272999 -5.599104 -0.683900 2.265600 -1.820900 -1.044715 -6.322910 0.746699 -78.707952 9.745964 34.346319 29.659463 -39.252510 -13.505653 0.639669 -1.790174 -3.411608 0.143594 10.786375 -0.083900 -7.125000 0.000000 0.000000 -24.302500 41.251500 2.407900 2.090057 6.072266 2.257546 70.286260 -8.982648 42.546757 -29.121814 36.367929 -10.154350 0.814473 0.405908 0.353631 -6.789176 -17.204843 2.308800 7.125000 0.000000 0.000000 19.260900 -46.760800 -0.868300 
-35.387571 18.026292 -2.744082 -39.872034 79.714392 -35.507779 -2.314991 -0.999110 -0.806757 -2.879556 -4.913732 -20.998249 -0.809314 10.067880 28.257226 7.208821 -12.550708 14.505481 0.329200 3.687500 10.199200 4.550023 -3.177357 4.341655 18.244724 11.469441 2.022255 3.555261 -3.339963 10.937568 1.100994 -6.161419 -6.020488 -0.101800 -2.057900 5.665800 3.993186 -0.282242 12.009084 3.480104 0.362420 5.849835 -0.394468 0.993316 0.532855 -3.493987 4.711361 -4.575146 3.099459 5.290744 -5.561378 -0.674400 2.274500 -1.799100 -1.041787 -6.320600 0.747232 -78.699083 9.714678 34.411677 29.670178 -39.258978 -13.511033 0.639861 -1.790252 -3.445195 0.146915 10.782970 -0.083000 -7.125000 0.000000 0.000000 -24.298000 41.249200 2.408900 2.089819 6.072225 2.259345 70.292782 -9.120990 42.483237 -29.290397 36.514842 -10.262689 0.815804 0.410612 0.243094 -6.789700 -17.304546 2.322600 7.125000 0.000000 0.000000 19.299000 -46.858200 -0.918200 
-35.388396 18.025364 -2.743876 -39.725990 79.736452 -35.362646 -2.323204 -0.980873 -0.794867 -2.898761 -4.941905 -20.924094 -0.808399 10.066946 28.247872 7.212017 -12.553267 14.398009 0.312300 3.592700 9.933500 4.553000 -3.188500 4.349746 18.202549 11.460875 2.070653 3.573057 -3.266225 10.739269 1.156471 -6.302818 -5.891367 -0.105500 -2.093900 5.765300 4.000197 -0.253967 11.986045 3.449737 0.395758 5.838346 -0.434256 1.013033 0.521323 -3.407201 4.668506 -4.502398 3.055516 5.226917 -5.614507 -0.699700 2.240700 -1.826400 -1.044745 -6.323966 0.752653 -78.631900 9.755824 34.526711 29.687409 -39.276880 -13.528967 0.638777 -1.817964 -3.473442 -0.159717 11.683390 -0.159900 -7.125000 0.000000 0.000000 -24.891800 42.063300 1.936800 2.087684 6.080209 2.246927 70.498925 -8.902839 42.274818 -28.687897 35.999240 -9.888650 0.809507 0.390098 0.362756 -6.852614 -16.896233 2.285300 7.125000 0.000000 0.000000 19.082300 -46.461300 -0.713700 
-35.389633 18.030416 -2.743154 -39.768481 79.725736 -35.404058 -2.316582 -0.985084 -0.802497 -2.894874 -4.922185 -20.946452 -0.815286 10.060109 28.226095 7.206716 -12.533322 14.453353 0.290400 3.465500 9.577600 4.557220 -3.205009 4.365958 18.208834 11.479290 2.158664 3.594802 -3.180893 10.513784 1.200079 -6.408598 -5.731299 -0.106500 -2.104700 5.795100 4.035433 -0.241170 11.972483 3.443433 0.415040 5.834401 -0.459923 1.024436 0.522637 -3.354524 4.654284 -4.472264 3.030255 5.204760 -5.640545 -0.715200 2.228500 -1.838900 -1.044715 -6.321488 0.754067 -78.600674 9.776822 34.603298 29.709544 -39.296273 -13.544778 0.639696 -1.817850 -3.497355 -0.159256 11.655926 -0.159500 -7.125000 0.000000 0.000000 -24.881300 42.038500 1.952300 2.085043 6.079597 2.246295 70.545009 -9.004888 42.244679 -28.700062 36.013087 -9.895536 0.807341 0.388476 0.281874 -6.876000 -16.849961 2.285600 7.125000 0.000000 0.000000 19.044000 -46.417700 -0.691000 
-35.390870 18.034540 -2.742638 -39.793495 79.725580 -35.436212 -2.321389 -0.987890 -0.797475 -2.888813 -4.908873 -20.947467 -0.829315 10.039653 28.172647 7.199969 -12.504591 14.522965 0.270500 3.345500 9.242100 4.559837 -3.197453 4.356387 18.218885 11.494929 2.125140 3.588651 -3.207640 10.580089 1.212220 -6.441561 -5.735071 -0.107100 -2.110200 5.810200 4.065626 -0.230050 11.963406 3.434956 0.431675 5.830835 -0.488342 1.033743 0.525830 -3.300896 4.639403 -4.438035 3.005313 5.181566 -5.668939 -0.730800 2.215600 -1.852800 -1.044840 -6.320025 0.755620 -78.568494 9.799483 34.678199 29.730057 -39.314389 -13.558781 0.640605 -1.814518 -3.522567 -0.115949 11.521181 -0.148000 -7.125000 0.000000 0.000000 -24.793600 41.917700 2.024000 2.082388 6.077845 2.245447 70.590975 -9.105443 42.228518 -28.707899 36.023304 -9.899440 0.805327 0.387549 0.195871 -6.890711 -16.809041 2.284000 7.125000 0.000000 0.000000 19.015600 -46.378500 -0.670800 
-35.391901 18.037530 -2.742226 -39.806473 79.723630 -35.453784 -2.322471 -0.988667 -0.796174 -2.885980 -4.900639 -20.947284 -0.837025 10.028769 28.142620 7.195736 -12.485796 14.557754 0.252300 3.231600 8.924300 4.562226 -3.199179 4.356644 18.222823 11.507726 2.137020 3.592323 -3.193959 10.541744 1.233777 -6.495608 -5.677829 -0.106400 -2.103300 5.791200 4.095586 -0.219085 11.950063 3.425431 0.447702 5.827654 -0.516786 1.043261 0.529709 -3.251310 4.626746 -4.404310 2.985060 5.161488 -5.694532 -0.744400 2.204300 -1.865800 -1.044999 -6.318321 0.757084 -78.538868 9.827275 34.747589 29.750244 -39.332497 -13.572207 0.641457 -1.809345 -3.546306 -0.047233 11.326944 -0.130200 -7.125000 0.000000 0.000000 -24.662700 41.743700 2.125900 2.080061 6.076674 2.244287 70.639406 -9.185861 42.218027 -28.682707 36.004902 -9.882972 0.803243 0.386361 0.120840 -6.899168 -16.756275 2.279000 7.125000 0.000000 0.000000 18.988500 -46.327400 -0.645000 
-35.393035 18.038974 -2.741813 -39.792582 79.725387 -35.444882 -2.325009 -0.986448 -0.792770 -2.886227 -4.899699 -20.935712 -0.842360 10.020425 28.118756 7.192279 -12.469589 14.565673 0.234900 3.119600 8.611900 4.563874 -3.200077 4.355792 18.220666 11.518611 2.144318 3.594122 -3.186847 10.520782 1.252451 -6.542366 -5.629159 -0.104400 -2.083500 5.736600 4.118045 -0.210244 11.935645 3.415087 0.460147 5.824590 -0.541794 1.050778 0.534141 -3.198177 4.618170 -4.369887 2.959745 5.146858 -5.715856 -0.760200 2.195800 -1.877600 -1.045123 -6.315836 0.758195 -78.515865 9.861259 34.806302 29.770309 -39.350575 -13.585745 0.642205 -1.804005 -3.564558 0.024567 11.131125 -0.112300 -7.125000 0.000000 0.000000 -24.529400 41.568100 2.227200 2.077837 6.075223 2.243970 70.676385 -9.276139 42.233055 -28.674179 36.001144 -9.876513 0.801467 0.386732 0.039598 -6.894990 -16.723426 2.273100 7.125000 0.000000 0.000000 18.980500 -46.294900 -0.629000 
